<svg id="Capa_1" enable-background="new 0 0 497 497" height="512" viewBox="0 0 497 497" width="512" xmlns="http://www.w3.org/2000/svg"><g><g><path d="m16.567 397.6v66.268c0 18.298 14.834 33.132 33.133 33.132h397.6c18.299 0 33.133-14.834 33.133-33.132v-66.268z" fill="#b5dbff"/><path d="m457.433 397.6v66.268c0 18.298-14.834 33.132-33.132 33.132h23c18.299 0 33.133-14.834 33.133-33.132v-66.268z" fill="#97d0ff"/><path d="m16.567 132.533v298.2c0 18.298 14.834 33.132 33.132 33.132h397.601c18.299 0 33.133-14.834 33.133-33.132v-298.2z" fill="#edf5ff"/><path d="m457.433 132.533v298.2c0 18.298-14.834 33.132-33.133 33.132h23c18.299 0 33.133-14.834 33.133-33.132v-298.2z" fill="#d5e8fe"/><path d="m480.433 149.1v-82.834c0-18.299-14.834-33.132-33.133-33.132h-397.6c-18.299 0-33.132 14.834-33.132 33.132v82.834z" fill="#ff435b"/><g><path d="m115.967 73.767h-16.567c-4.142 0-7.5-3.358-7.5-7.5s3.358-7.5 7.5-7.5h16.567c4.142 0 7.5 3.358 7.5 7.5s-3.358 7.5-7.5 7.5z" fill="#e3374e"/></g><g><path d="m165.666 73.767h-16.566c-4.142 0-7.5-3.358-7.5-7.5s3.358-7.5 7.5-7.5h16.566c4.142 0 7.5 3.358 7.5 7.5s-3.357 7.5-7.5 7.5z" fill="#e3374e"/></g><g><path d="m347.9 73.767h-16.566c-4.142 0-7.5-3.358-7.5-7.5s3.358-7.5 7.5-7.5h16.566c4.142 0 7.5 3.358 7.5 7.5s-3.358 7.5-7.5 7.5z" fill="#e3374e"/></g><g><path d="m397.6 73.767h-16.567c-4.142 0-7.5-3.358-7.5-7.5s3.358-7.5 7.5-7.5h16.567c4.142 0 7.5 3.358 7.5 7.5s-3.358 7.5-7.5 7.5z" fill="#e3374e"/></g><path d="m115.967 66.267c0 9.149 7.417 16.567 16.567 16.567s16.567-7.417 16.567-16.567v-49.7c-.001-9.15-7.418-16.567-16.568-16.567s-16.567 7.417-16.567 16.567v49.7z" fill="#596c76"/><path d="m347.9 66.267c0 9.149 7.417 16.567 16.567 16.567s16.567-7.417 16.567-16.567v-49.7c0-9.15-7.417-16.567-16.567-16.567s-16.567 7.417-16.567 16.567z" fill="#596c76"/><g fill="#e3374e"><path d="m447.3 33.133h-23c18.299 0 33.133 14.834 33.133 33.132v82.835h23v-82.834c0-18.299-14.834-33.133-33.133-33.133z"/><path d="m16.567 108.467h463.866v15h-463.866z"/></g></g><g><ellipse cx="248.5" cy="306.483" fill="#fdbf00" rx="57.983" ry="57.983" transform="matrix(.157 -.988 .988 .157 -93.156 503.855)"/></g><g><path d="m248.5 222.867c-4.142 0-7.5-3.358-7.5-7.5v-33.133c0-4.142 3.358-7.5 7.5-7.5 4.143 0 7.5 3.358 7.5 7.5v33.133c0 4.142-3.357 7.5-7.5 7.5z" fill="#fdbf00"/></g><g><path d="m248.5 438.233c-4.142 0-7.5-3.358-7.5-7.5v-33.133c0-4.142 3.358-7.5 7.5-7.5 4.143 0 7.5 3.358 7.5 7.5v33.133c0 4.143-3.357 7.5-7.5 7.5z" fill="#fdbf00"/></g><g><path d="m336.358 401.841c-1.919 0-3.839-.732-5.304-2.197l-23.429-23.429c-2.929-2.929-2.929-7.678 0-10.606 2.93-2.929 7.678-2.929 10.607 0l23.429 23.429c2.929 2.929 2.929 7.678 0 10.606-1.464 1.465-3.384 2.197-5.303 2.197z" fill="#fdbf00"/></g><g><path d="m157.383 313.983h-33.133c-4.142 0-7.5-3.358-7.5-7.5s3.358-7.5 7.5-7.5h33.133c4.142 0 7.5 3.358 7.5 7.5 0 4.143-3.358 7.5-7.5 7.5z" fill="#fdbf00"/></g><g><path d="m372.75 313.983h-33.134c-4.143 0-7.5-3.358-7.5-7.5s3.357-7.5 7.5-7.5h33.134c4.143 0 7.5 3.358 7.5 7.5 0 4.143-3.357 7.5-7.5 7.5z" fill="#fdbf00"/></g><g><path d="m184.071 249.554c-1.919 0-3.839-.732-5.303-2.197l-23.429-23.429c-2.929-2.929-2.929-7.678 0-10.606 2.929-2.929 7.678-2.929 10.606 0l23.429 23.429c2.929 2.929 2.929 7.678 0 10.606-1.464 1.465-3.384 2.197-5.303 2.197z" fill="#fdbf00"/></g><g><path d="m160.642 401.841c-1.919 0-3.839-.732-5.303-2.197-2.929-2.929-2.929-7.678 0-10.606l23.429-23.429c2.929-2.929 7.678-2.929 10.606 0 2.929 2.929 2.929 7.678 0 10.606l-23.429 23.429c-1.464 1.465-3.384 2.197-5.303 2.197z" fill="#fdbf00"/></g><g><path d="m312.93 249.554c-1.919 0-3.839-.732-5.304-2.197-2.929-2.929-2.929-7.678 0-10.606l23.429-23.429c2.93-2.929 7.678-2.929 10.607 0s2.929 7.678 0 10.606l-23.429 23.429c-1.464 1.465-3.384 2.197-5.303 2.197z" fill="#fdbf00"/></g><ellipse cx="248.5" cy="306.483" fill="#fdbf00" rx="57.983" ry="57.983" transform="matrix(.157 -.988 .988 .157 -93.156 503.855)"/><path d="m248.5 248.5c-3.938 0-7.783.397-11.5 1.145 26.514 5.336 46.483 28.753 46.483 56.838 0 28.086-19.969 51.503-46.483 56.839 3.717.748 7.562 1.145 11.5 1.145 32.023 0 57.983-25.96 57.983-57.983 0-32.024-25.96-57.984-57.983-57.984z" fill="#ff9100"/></g></svg>